<svg xmlns="http://www.w3.org/2000/svg" fill="white" viewBox="0 0 24 24" height="50" width="50" id="Face-Id-2--Streamline-Ultimate.svg"><desc>Face Id 2 Streamline Icon: https://streamlinehq.com</desc><path stroke="#000000" stroke-linecap="round" stroke-linejoin="round" d="M18 12.5c0 1.5913 -0.6321 3.1174 -1.7574 4.2426C15.1174 17.8679 13.5913 18.5 12 18.5c-1.5913 0 -3.11742 -0.6321 -4.24264 -1.7574C6.63214 15.6174 6 14.0913 6 12.5v-2c0 -1.5913 0.63214 -3.11742 1.75736 -4.24264C8.88258 5.13214 10.4087 4.5 12 4.5s3.1174 0.63214 4.2426 1.75736C17.3679 7.38258 18 8.9087 18 10.5v2Z" stroke-width="1"></path><path stroke="#000000" stroke-linecap="round" stroke-linejoin="round" d="M13.414 14.9141c-0.3751 0.3749 -0.8837 0.5855 -1.414 0.5855 -0.5303 0 -1.0389 -0.2106 -1.414 -0.5855" stroke-width="1"></path><path stroke="#000000" stroke-linecap="round" stroke-linejoin="round" d="M18 11s-4 0 -6 -3c-2 3 -6 3 -6 3" stroke-width="1"></path><path stroke="#000000" stroke-linecap="round" stroke-linejoin="round" d="M0.5 6.5v-3c0 -0.79565 0.31607 -1.55871 0.87868 -2.12132C1.94129 0.81607 2.70435 0.5 3.5 0.5h3" stroke-width="1"></path><path stroke="#000000" stroke-linecap="round" stroke-linejoin="round" d="M23.5 6.5v-3c0 -0.79565 -0.3161 -1.55871 -0.8787 -2.12132C22.0587 0.81607 21.2956 0.5 20.5 0.5h-3" stroke-width="1"></path><path stroke="#000000" stroke-linecap="round" stroke-linejoin="round" d="M0.5 17.5v3c0 0.7956 0.31607 1.5587 0.87868 2.1213 0.56261 0.5626 1.32567 0.8787 2.12132 0.8787h3" stroke-width="1"></path><path stroke="#000000" stroke-linecap="round" stroke-linejoin="round" d="M23.5 17.5v3c0 0.7956 -0.3161 1.5587 -0.8787 2.1213 -0.5626 0.5626 -1.3257 0.8787 -2.1213 0.8787h-3" stroke-width="1"></path><path stroke="#000000" d="M14.5 12.75c-0.1381 0 -0.25 -0.1119 -0.25 -0.25s0.1119 -0.25 0.25 -0.25" stroke-width="1"></path><path stroke="#000000" d="M14.5 12.75c0.1381 0 0.25 -0.1119 0.25 -0.25s-0.1119 -0.25 -0.25 -0.25" stroke-width="1"></path><g><path stroke="#000000" d="M9.5 12.75c-0.13807 0 -0.25 -0.1119 -0.25 -0.25s0.11193 -0.25 0.25 -0.25" stroke-width="1"></path><path stroke="#000000" d="M9.5 12.75c0.13807 0 0.25 -0.1119 0.25 -0.25s-0.11193 -0.25 -0.25 -0.25" stroke-width="1"></path></g></svg>